<svg xmlns="http://www.w3.org/2000/svg" viewBox="0 0 320 90" width="320" height="90" role="img" aria-label="Smart iFix - Mobile &amp; Laptop Repair">
  <defs>
    <linearGradient id="pg" x1="0%" y1="0%" x2="100%" y2="100%">
      <stop offset="0%" style="stop-color:#f39c12"/>
      <stop offset="100%" style="stop-color:#e67e22"/>
    </linearGradient>
  </defs>
  <g transform="translate(8,4)">
    <rect x="4" y="36" width="52" height="34" rx="4" fill="#fff" opacity="0.9"/>
    <rect x="8" y="38" width="44" height="26" rx="2" fill="rgba(255,255,255,0.08)"/>
    <rect x="0" y="70" width="60" height="4" rx="2" fill="rgba(255,255,255,0.65)"/>
    <rect x="34" y="18" width="22" height="38" rx="4" fill="url(#pg)" opacity="0.95"/>
    <rect x="36" y="21" width="18" height="29" rx="2" fill="#fff" opacity="0.12"/>
    <circle cx="45" cy="53" r="2" fill="#fff" opacity="0.45"/>
    <g transform="translate(14,12)" opacity="0.92">
      <circle cx="16" cy="16" r="8" fill="none" stroke="#fff" stroke-width="5"/>
      <circle cx="16" cy="16" r="4" fill="#fff"/>
      <rect x="14" y="4"  width="4" height="5" rx="1" fill="#fff"/>
      <rect x="14" y="23" width="4" height="5" rx="1" fill="#fff"/>
      <rect x="4"  y="14" width="5" height="4" rx="1" fill="#fff"/>
      <rect x="23" y="14" width="5" height="4" rx="1" fill="#fff"/>
      <rect x="7.5"  y="7.5"  width="4" height="4" rx="1" fill="#fff" transform="rotate(45,9.5,9.5)"/>
      <rect x="20.5" y="20.5" width="4" height="4" rx="1" fill="#fff" transform="rotate(45,22.5,22.5)"/>
      <rect x="7.5"  y="20.5" width="4" height="4" rx="1" fill="#fff" transform="rotate(45,9.5,22.5)"/>
      <rect x="20.5" y="7.5"  width="4" height="4" rx="1" fill="#fff" transform="rotate(45,22.5,9.5)"/>
    </g>
    <g transform="translate(6,22)" opacity="0.9">
      <path d="M8 2 C4 2 2 4 2 7 C2 10 4 12 7 12 L16 22 C17 23.5 19 23.5 20 22 C21.5 21 21.5 19 20 18 L10 9 C12 8 12 4 10 2 C9.5 1.5 8.8 1 8 2Z" fill="#f8c94a"/>
    </g>
    <text x="52" y="12" font-size="10" fill="#f39c12" font-family="Arial">&#x2726;</text>
    <text x="2"  y="14" font-size="7"  fill="#f39c12" font-family="Arial">&#x2726;</text>
  </g>
  <text x="80" y="46" font-family="Arial Black,Arial,sans-serif" font-weight="900" font-size="28" fill="#ffffff" letter-spacing="1">SMART</text>
  <text x="80" y="72" font-family="Arial Black,Arial,sans-serif" font-weight="900" font-size="28" fill="#f39c12" letter-spacing="1">I</text>
  <g transform="translate(81,50)">
    <path d="M4 7 Q6 5 8 7"  fill="none" stroke="#f39c12" stroke-width="1.6" stroke-linecap="round"/>
    <path d="M2 5 Q6 1 10 5" fill="none" stroke="#f39c12" stroke-width="1.6" stroke-linecap="round"/>
    <circle cx="6" cy="9" r="1.2" fill="#f39c12"/>
  </g>
  <text x="97" y="72" font-family="Arial Black,Arial,sans-serif" font-weight="900" font-size="28" fill="#f39c12" letter-spacing="1">FiX</text>
  <text x="80" y="84" font-family="Arial,sans-serif" font-weight="600" font-size="9" fill="rgba(255,255,255,0.72)" letter-spacing="2">&#x2022; MOBILE &amp; LAPTOP REPAIR &#x2022;</text>
</svg>